<svg width="168" height="50" viewBox="0 0 168 50" fill="none" xmlns="http://www.w3.org/2000/svg">
<rect x="0.5" y="0.5" width="167" height="49" rx="24.5" stroke="white"/>
<path d="M51.1172 27.5234C50.7057 28.0599 50.1354 28.4661 49.4062 28.7422C48.6771 29.0182 47.849 29.1562 46.9219 29.1562C45.9688 29.1562 45.125 28.9401 44.3906 28.5078C43.6562 28.0755 43.0885 27.4583 42.6875 26.6562C42.2917 25.849 42.0859 24.9089 42.0703 23.8359V22.9453C42.0703 21.2266 42.4818 19.8854 43.3047 18.9219C44.1276 17.9531 45.276 17.4688 46.75 17.4688C48.0156 17.4688 49.0208 17.7812 49.7656 18.4062C50.5104 19.0312 50.9583 19.9323 51.1094 21.1094H49.1719C48.9531 19.7396 48.1589 19.0547 46.7891 19.0547C45.9036 19.0547 45.2292 19.375 44.7656 20.0156C44.3073 20.651 44.0703 21.5859 44.0547 22.8203V23.6953C44.0547 24.9245 44.3125 25.8802 44.8281 26.5625C45.349 27.2396 46.0703 27.5781 46.9922 27.5781C48.0026 27.5781 48.7214 27.349 49.1484 26.8906V24.6641H46.8047V23.1641H51.1172V27.5234ZM56.8281 29.1562C55.625 29.1562 54.6484 28.7786 53.8984 28.0234C53.1536 27.263 52.7812 26.2526 52.7812 24.9922V24.7578C52.7812 23.9141 52.9427 23.1615 53.2656 22.5C53.5938 21.8333 54.0521 21.3151 54.6406 20.9453C55.2292 20.5755 55.8854 20.3906 56.6094 20.3906C57.7604 20.3906 58.6484 20.7578 59.2734 21.4922C59.9036 22.2266 60.2188 23.2656 60.2188 24.6094V25.375H54.6953C54.7526 26.0729 54.9844 26.625 55.3906 27.0312C55.8021 27.4375 56.3177 27.6406 56.9375 27.6406C57.8073 27.6406 58.5156 27.2891 59.0625 26.5859L60.0859 27.5625C59.7474 28.0677 59.2943 28.4609 58.7266 28.7422C58.1641 29.0182 57.5312 29.1562 56.8281 29.1562ZM56.6016 21.9141C56.0807 21.9141 55.6589 22.0964 55.3359 22.4609C55.0182 22.8255 54.8151 23.3333 54.7266 23.9844H58.3438V23.8438C58.3021 23.2083 58.1328 22.7292 57.8359 22.4062C57.5391 22.0781 57.1276 21.9141 56.6016 21.9141ZM64.0781 18.4922V20.5469H65.5703V21.9531H64.0781V26.6719C64.0781 26.9948 64.1406 27.2292 64.2656 27.375C64.3958 27.5156 64.625 27.5859 64.9531 27.5859C65.1719 27.5859 65.3932 27.5599 65.6172 27.5078V28.9766C65.1849 29.0964 64.7682 29.1562 64.3672 29.1562C62.9089 29.1562 62.1797 28.3516 62.1797 26.7422V21.9531H60.7891V20.5469H62.1797V18.4922H64.0781ZM76.0625 29C75.9792 28.8385 75.9062 28.5755 75.8438 28.2109C75.2396 28.8411 74.5 29.1562 73.625 29.1562C72.776 29.1562 72.0833 28.9141 71.5469 28.4297C71.0104 27.9453 70.7422 27.3464 70.7422 26.6328C70.7422 25.7318 71.0755 25.0417 71.7422 24.5625C72.4141 24.0781 73.3724 23.8359 74.6172 23.8359H75.7812V23.2812C75.7812 22.8438 75.6589 22.4948 75.4141 22.2344C75.1693 21.9688 74.7969 21.8359 74.2969 21.8359C73.8646 21.8359 73.5104 21.9453 73.2344 22.1641C72.9583 22.3776 72.8203 22.651 72.8203 22.9844H70.9219C70.9219 22.5208 71.0755 22.0885 71.3828 21.6875C71.6901 21.2812 72.1068 20.9635 72.6328 20.7344C73.1641 20.5052 73.7552 20.3906 74.4062 20.3906C75.3958 20.3906 76.1849 20.6406 76.7734 21.1406C77.362 21.6354 77.6641 22.3333 77.6797 23.2344V27.0469C77.6797 27.8073 77.7865 28.4141 78 28.8672V29H76.0625ZM73.9766 27.6328C74.3516 27.6328 74.7031 27.5417 75.0312 27.3594C75.3646 27.1771 75.6146 26.9323 75.7812 26.625V25.0312H74.7578C74.0547 25.0312 73.526 25.1536 73.1719 25.3984C72.8177 25.6432 72.6406 25.9896 72.6406 26.4375C72.6406 26.8021 72.7604 27.0938 73 27.3125C73.2448 27.526 73.5703 27.6328 73.9766 27.6328ZM83.8359 29V17.625H87.1953C88.2005 17.625 89.0911 17.849 89.8672 18.2969C90.6484 18.7448 91.2526 19.3802 91.6797 20.2031C92.1068 21.026 92.3203 21.9688 92.3203 23.0312V23.6016C92.3203 24.6797 92.1042 25.6276 91.6719 26.4453C91.2448 27.263 90.6328 27.8932 89.8359 28.3359C89.0443 28.7786 88.1354 29 87.1094 29H83.8359ZM85.8125 19.2188V27.4219H87.1016C88.138 27.4219 88.9323 27.099 89.4844 26.4531C90.0417 25.8021 90.3255 24.8698 90.3359 23.6562V23.0234C90.3359 21.7891 90.0677 20.8464 89.5312 20.1953C88.9948 19.5443 88.2161 19.2188 87.1953 19.2188H85.8125ZM97.8281 29.1562C96.625 29.1562 95.6484 28.7786 94.8984 28.0234C94.1536 27.263 93.7812 26.2526 93.7812 24.9922V24.7578C93.7812 23.9141 93.9427 23.1615 94.2656 22.5C94.5938 21.8333 95.0521 21.3151 95.6406 20.9453C96.2292 20.5755 96.8854 20.3906 97.6094 20.3906C98.7604 20.3906 99.6484 20.7578 100.273 21.4922C100.904 22.2266 101.219 23.2656 101.219 24.6094V25.375H95.6953C95.7526 26.0729 95.9844 26.625 96.3906 27.0312C96.8021 27.4375 97.3177 27.6406 97.9375 27.6406C98.8073 27.6406 99.5156 27.2891 100.062 26.5859L101.086 27.5625C100.747 28.0677 100.294 28.4609 99.7266 28.7422C99.1641 29.0182 98.5312 29.1562 97.8281 29.1562ZM97.6016 21.9141C97.0807 21.9141 96.6589 22.0964 96.3359 22.4609C96.0182 22.8255 95.8151 23.3333 95.7266 23.9844H99.3438V23.8438C99.3021 23.2083 99.1328 22.7292 98.8359 22.4062C98.5391 22.0781 98.1276 21.9141 97.6016 21.9141ZM104.484 20.5469L104.539 21.4297C105.133 20.737 105.945 20.3906 106.977 20.3906C108.107 20.3906 108.88 20.8229 109.297 21.6875C109.911 20.8229 110.776 20.3906 111.891 20.3906C112.823 20.3906 113.516 20.6484 113.969 21.1641C114.427 21.6797 114.661 22.4401 114.672 23.4453V29H112.773V23.5C112.773 22.9635 112.656 22.5703 112.422 22.3203C112.188 22.0703 111.799 21.9453 111.258 21.9453C110.826 21.9453 110.471 22.0625 110.195 22.2969C109.924 22.526 109.734 22.8281 109.625 23.2031L109.633 29H107.734V23.4375C107.708 22.4427 107.201 21.9453 106.211 21.9453C105.451 21.9453 104.911 22.2552 104.594 22.875V29H102.695V20.5469H104.484ZM116.266 24.6953C116.266 23.8672 116.43 23.1224 116.758 22.4609C117.086 21.7943 117.547 21.2839 118.141 20.9297C118.734 20.5703 119.417 20.3906 120.188 20.3906C121.328 20.3906 122.253 20.7578 122.961 21.4922C123.674 22.2266 124.06 23.2005 124.117 24.4141L124.125 24.8594C124.125 25.6927 123.964 26.4375 123.641 27.0938C123.323 27.75 122.865 28.2578 122.266 28.6172C121.672 28.9766 120.984 29.1562 120.203 29.1562C119.01 29.1562 118.055 28.7604 117.336 27.9688C116.622 27.1719 116.266 26.112 116.266 24.7891V24.6953ZM118.164 24.8594C118.164 25.7292 118.344 26.4115 118.703 26.9062C119.062 27.3958 119.562 27.6406 120.203 27.6406C120.844 27.6406 121.341 27.3906 121.695 26.8906C122.055 26.3906 122.234 25.6589 122.234 24.6953C122.234 23.8411 122.049 23.1641 121.68 22.6641C121.315 22.1641 120.818 21.9141 120.188 21.9141C119.568 21.9141 119.076 22.1615 118.711 22.6562C118.346 23.1458 118.164 23.8802 118.164 24.8594Z" fill="white"/>
</svg>
