<svg width="111" height="40" viewBox="0 0 111 40" fill="none" xmlns="http://www.w3.org/2000/svg">
<rect width="111" height="40" rx="20" fill="white" fill-opacity="0.2"/>
<path d="M32.2783 16.4414H29.1748V25H27.459V16.4414H24.3828V15.0469H32.2783V16.4414ZM36.8516 19.1211C36.6328 19.0846 36.4072 19.0664 36.1748 19.0664C35.4137 19.0664 34.901 19.3581 34.6367 19.9414V25H32.9756V17.6035H34.5615L34.6025 18.4307C35.0036 17.7881 35.5596 17.4668 36.2705 17.4668C36.5075 17.4668 36.7035 17.4987 36.8584 17.5625L36.8516 19.1211ZM40.6113 22.6211L42.1152 17.6035H43.8857L40.9463 26.1211C40.4951 27.3652 39.7295 27.9873 38.6494 27.9873C38.4079 27.9873 38.1413 27.9463 37.8496 27.8643V26.5791L38.1641 26.5996C38.5833 26.5996 38.8978 26.5221 39.1074 26.3672C39.3216 26.2168 39.4902 25.9616 39.6133 25.6016L39.8525 24.9658L37.2549 17.6035H39.0459L40.6113 22.6211ZM50.3184 25H48.5957V15.0469H50.3184V25ZM54.3652 15.8057V17.6035H55.6709V18.834H54.3652V22.9629C54.3652 23.2454 54.4199 23.4505 54.5293 23.5781C54.6432 23.7012 54.8438 23.7627 55.1309 23.7627C55.3223 23.7627 55.516 23.7399 55.7119 23.6943V24.9795C55.3337 25.0843 54.9691 25.1367 54.6182 25.1367C53.3421 25.1367 52.7041 24.4326 52.7041 23.0244V18.834H51.4873V17.6035H52.7041V15.8057H54.3652ZM66.3281 20.7822H62.3223V25H60.5928V15.0469H66.916V16.4414H62.3223V19.4014H66.3281V20.7822ZM71.8242 19.1211C71.6055 19.0846 71.3799 19.0664 71.1475 19.0664C70.3864 19.0664 69.8737 19.3581 69.6094 19.9414V25H67.9482V17.6035H69.5342L69.5752 18.4307C69.9762 17.7881 70.5322 17.4668 71.2432 17.4668C71.4801 17.4668 71.6761 17.4987 71.8311 17.5625L71.8242 19.1211ZM75.9941 25.1367C74.9414 25.1367 74.0869 24.8063 73.4307 24.1455C72.779 23.4801 72.4531 22.596 72.4531 21.4932V21.2881C72.4531 20.5498 72.5944 19.8913 72.877 19.3125C73.1641 18.7292 73.5651 18.2757 74.0801 17.9521C74.5951 17.6286 75.1693 17.4668 75.8027 17.4668C76.8099 17.4668 77.5869 17.7881 78.1338 18.4307C78.6852 19.0732 78.9609 19.9824 78.9609 21.1582V21.8281H74.1279C74.1781 22.4388 74.3809 22.9219 74.7363 23.2773C75.0964 23.6328 75.5475 23.8105 76.0898 23.8105C76.8509 23.8105 77.4707 23.5029 77.9492 22.8877L78.8447 23.7422C78.5485 24.1842 78.152 24.5283 77.6553 24.7744C77.1631 25.016 76.6094 25.1367 75.9941 25.1367ZM75.7959 18.7998C75.3402 18.7998 74.971 18.9593 74.6885 19.2783C74.4105 19.5973 74.2327 20.0417 74.1553 20.6113H77.3203V20.4883C77.2839 19.9323 77.1357 19.513 76.876 19.2305C76.6162 18.9434 76.2562 18.7998 75.7959 18.7998ZM83.5137 25.1367C82.4609 25.1367 81.6064 24.8063 80.9502 24.1455C80.2985 23.4801 79.9727 22.596 79.9727 21.4932V21.2881C79.9727 20.5498 80.1139 19.8913 80.3965 19.3125C80.6836 18.7292 81.0846 18.2757 81.5996 17.9521C82.1146 17.6286 82.6888 17.4668 83.3223 17.4668C84.3294 17.4668 85.1064 17.7881 85.6533 18.4307C86.2048 19.0732 86.4805 19.9824 86.4805 21.1582V21.8281H81.6475C81.6976 22.4388 81.9004 22.9219 82.2559 23.2773C82.6159 23.6328 83.0671 23.8105 83.6094 23.8105C84.3704 23.8105 84.9902 23.5029 85.4688 22.8877L86.3643 23.7422C86.068 24.1842 85.6715 24.5283 85.1748 24.7744C84.6826 25.016 84.1289 25.1367 83.5137 25.1367ZM83.3154 18.7998C82.8597 18.7998 82.4906 18.9593 82.208 19.2783C81.93 19.5973 81.7523 20.0417 81.6748 20.6113H84.8398V20.4883C84.8034 19.9323 84.6553 19.513 84.3955 19.2305C84.1357 18.9434 83.7757 18.7998 83.3154 18.7998Z" fill="white"/>
</svg>
