<svg width="172" height="50" viewBox="0 0 172 50" fill="none" xmlns="http://www.w3.org/2000/svg">
<rect width="172" height="50" rx="25" fill="white"/>
<path d="M59.6719 21.2188H56.125V31H54.1641V21.2188H50.6484V19.625H59.6719V21.2188ZM64.8984 24.2812C64.6484 24.2396 64.3906 24.2188 64.125 24.2188C63.2552 24.2188 62.6693 24.5521 62.3672 25.2188V31H60.4688V22.5469H62.2812L62.3281 23.4922C62.7865 22.7578 63.4219 22.3906 64.2344 22.3906C64.5052 22.3906 64.7292 22.4271 64.9062 22.5L64.8984 24.2812ZM69.1953 28.2812L70.9141 22.5469H72.9375L69.5781 32.2812C69.0625 33.7031 68.1875 34.4141 66.9531 34.4141C66.6771 34.4141 66.3724 34.3672 66.0391 34.2734V32.8047L66.3984 32.8281C66.8776 32.8281 67.237 32.7396 67.4766 32.5625C67.7214 32.3906 67.9141 32.099 68.0547 31.6875L68.3281 30.9609L65.3594 22.5469H67.4062L69.1953 28.2812ZM80.0391 31H78.1406V22.5469H80.0391V31ZM78.0234 20.3516C78.0234 20.0599 78.1146 19.8177 78.2969 19.625C78.4844 19.4323 78.75 19.3359 79.0938 19.3359C79.4375 19.3359 79.7031 19.4323 79.8906 19.625C80.0781 19.8177 80.1719 20.0599 80.1719 20.3516C80.1719 20.638 80.0781 20.8776 79.8906 21.0703C79.7031 21.2578 79.4375 21.3516 79.0938 21.3516C78.75 21.3516 78.4844 21.2578 78.2969 21.0703C78.1146 20.8776 78.0234 20.638 78.0234 20.3516ZM84.4922 20.4922V22.5469H85.9844V23.9531H84.4922V28.6719C84.4922 28.9948 84.5547 29.2292 84.6797 29.375C84.8099 29.5156 85.0391 29.5859 85.3672 29.5859C85.5859 29.5859 85.8073 29.5599 86.0312 29.5078V30.9766C85.599 31.0964 85.1823 31.1562 84.7812 31.1562C83.3229 31.1562 82.5938 30.3516 82.5938 28.7422V23.9531H81.2031V22.5469H82.5938V20.4922H84.4922ZM98.1641 26.1797H93.5859V31H91.6094V19.625H98.8359V21.2188H93.5859V24.6016H98.1641V26.1797ZM104.445 24.2812C104.195 24.2396 103.938 24.2188 103.672 24.2188C102.802 24.2188 102.216 24.5521 101.914 25.2188V31H100.016V22.5469H101.828L101.875 23.4922C102.333 22.7578 102.969 22.3906 103.781 22.3906C104.052 22.3906 104.276 22.4271 104.453 22.5L104.445 24.2812ZM109.211 31.1562C108.008 31.1562 107.031 30.7786 106.281 30.0234C105.536 29.263 105.164 28.2526 105.164 26.9922V26.7578C105.164 25.9141 105.326 25.1615 105.648 24.5C105.977 23.8333 106.435 23.3151 107.023 22.9453C107.612 22.5755 108.268 22.3906 108.992 22.3906C110.143 22.3906 111.031 22.7578 111.656 23.4922C112.286 24.2266 112.602 25.2656 112.602 26.6094V27.375H107.078C107.135 28.0729 107.367 28.625 107.773 29.0312C108.185 29.4375 108.701 29.6406 109.32 29.6406C110.19 29.6406 110.898 29.2891 111.445 28.5859L112.469 29.5625C112.13 30.0677 111.677 30.4609 111.109 30.7422C110.547 31.0182 109.914 31.1562 109.211 31.1562ZM108.984 23.9141C108.464 23.9141 108.042 24.0964 107.719 24.4609C107.401 24.8255 107.198 25.3333 107.109 25.9844H110.727V25.8438C110.685 25.2083 110.516 24.7292 110.219 24.4062C109.922 24.0781 109.51 23.9141 108.984 23.9141ZM117.805 31.1562C116.602 31.1562 115.625 30.7786 114.875 30.0234C114.13 29.263 113.758 28.2526 113.758 26.9922V26.7578C113.758 25.9141 113.919 25.1615 114.242 24.5C114.57 23.8333 115.029 23.3151 115.617 22.9453C116.206 22.5755 116.862 22.3906 117.586 22.3906C118.737 22.3906 119.625 22.7578 120.25 23.4922C120.88 24.2266 121.195 25.2656 121.195 26.6094V27.375H115.672C115.729 28.0729 115.961 28.625 116.367 29.0312C116.779 29.4375 117.294 29.6406 117.914 29.6406C118.784 29.6406 119.492 29.2891 120.039 28.5859L121.062 29.5625C120.724 30.0677 120.271 30.4609 119.703 30.7422C119.141 31.0182 118.508 31.1562 117.805 31.1562ZM117.578 23.9141C117.057 23.9141 116.635 24.0964 116.312 24.4609C115.995 24.8255 115.792 25.3333 115.703 25.9844H119.32V25.8438C119.279 25.2083 119.109 24.7292 118.812 24.4062C118.516 24.0781 118.104 23.9141 117.578 23.9141Z" fill="#1E71FF"/>
</svg>
